<svg width="680" height="640" viewBox="0 0 680 640" xmlns="http://www.w3.org/2000/svg" role="img">
<title>moyan 不同模式对比</title>
<desc>四种压缩模式（原始、简、精、文言文）的回复逐字填入中文作文纸方格，通过占用格子数直观对比字数</desc>

<style>
  .paper-bg { fill: #FEFCF5; }
  .cell-box { fill: none; stroke: #2F7A3E; stroke-width: 0.55; opacity: 0.85; }
  .cn { font-family: "Songti SC", "STSong", "SimSun", "Noto Serif CJK SC", serif; font-size: 13px; fill: #1a1a1a; text-anchor: middle; dominant-baseline: central; }
  .en { font-family: "SF Mono", "Menlo", "Consolas", "Roboto Mono", "Courier New", monospace; font-size: 11px; fill: #1a1a1a; text-anchor: middle; dominant-baseline: central; }
  .mode-label { font-family: "Songti SC", "STSong", "SimSun", serif; font-size: 15px; font-weight: 500; fill: #2F7A3E; }
  .mode-count { font-family: "SF Mono", "Menlo", "Consolas", monospace; font-size: 11px; fill: #5a7a5f; }
  .header-label { font-family: "Songti SC", "STSong", "SimSun", serif; font-size: 12px; fill: #2F7A3E; letter-spacing: 2px; }
  .footer-label { font-family: "SF Mono", "Menlo", "Consolas", monospace; font-size: 10px; fill: #2F7A3E; opacity: 0.8; }
  .footer-note { font-family: "Songti SC", "STSong", "SimSun", serif; font-size: 10.5px; fill: #5a7a5f; font-style: italic; }
  .title-big { font-family: "Songti SC", "STSong", "SimSun", serif; font-size: 19px; font-weight: 500; fill: #1a1a1a; letter-spacing: 3px; }
</style>

<rect x="20" y="20" width="640" height="600" rx="3" class="paper-bg" stroke="#2F7A3E" stroke-width="0.9" opacity="0.95"/>

<text x="40" y="52" class="title-big">不同模式对比</text>
<text x="640" y="52" class="header-label" text-anchor="end">第 一 页，共 一 页</text>
<line x1="40" y1="62" x2="640" y2="62" stroke="#2F7A3E" stroke-width="0.4" opacity="0.35"/>

<g transform="translate(40, 85)">
  <text x="0" y="0" class="mode-label">原始</text>
  <text x="600" y="0" class="mode-count" text-anchor="end">262 字 · 基准</text>

  <g transform="translate(0, 14)">
    <g>
      <rect x="0" y="0" width="20" height="20" class="cell-box"/><rect x="20" y="0" width="20" height="20" class="cell-box"/><rect x="40" y="0" width="20" height="20" class="cell-box"/><rect x="60" y="0" width="20" height="20" class="cell-box"/><rect x="80" y="0" width="20" height="20" class="cell-box"/><rect x="100" y="0" width="20" height="20" class="cell-box"/><rect x="120" y="0" width="20" height="20" class="cell-box"/><rect x="140" y="0" width="20" height="20" class="cell-box"/><rect x="160" y="0" width="20" height="20" class="cell-box"/><rect x="180" y="0" width="20" height="20" class="cell-box"/><rect x="200" y="0" width="20" height="20" class="cell-box"/><rect x="220" y="0" width="20" height="20" class="cell-box"/><rect x="240" y="0" width="20" height="20" class="cell-box"/><rect x="260" y="0" width="20" height="20" class="cell-box"/><rect x="280" y="0" width="20" height="20" class="cell-box"/><rect x="300" y="0" width="20" height="20" class="cell-box"/><rect x="320" y="0" width="20" height="20" class="cell-box"/><rect x="340" y="0" width="20" height="20" class="cell-box"/><rect x="360" y="0" width="20" height="20" class="cell-box"/><rect x="380" y="0" width="20" height="20" class="cell-box"/><rect x="400" y="0" width="20" height="20" class="cell-box"/><rect x="420" y="0" width="20" height="20" class="cell-box"/><rect x="440" y="0" width="20" height="20" class="cell-box"/><rect x="460" y="0" width="20" height="20" class="cell-box"/><rect x="480" y="0" width="20" height="20" class="cell-box"/><rect x="500" y="0" width="20" height="20" class="cell-box"/><rect x="520" y="0" width="20" height="20" class="cell-box"/><rect x="540" y="0" width="20" height="20" class="cell-box"/><rect x="560" y="0" width="20" height="20" class="cell-box"/><rect x="580" y="0" width="20" height="20" class="cell-box"/>
      <text x="10" y="10" class="cn">容</text><text x="30" y="10" class="cn">器</text><text x="50" y="10" class="cn">启</text><text x="70" y="10" class="cn">动</text><text x="90" y="10" class="cn">后</text><text x="110" y="10" class="cn">立</text><text x="130" y="10" class="cn">即</text><text x="150" y="10" class="cn">退</text><text x="170" y="10" class="cn">出</text><text x="190" y="10" class="cn">通</text><text x="210" y="10" class="cn">常</text><text x="230" y="10" class="cn">有</text><text x="250" y="10" class="cn">几</text><text x="270" y="10" class="cn">个</text><text x="290" y="10" class="cn">原</text><text x="310" y="10" class="cn">因</text><text x="330" y="10" class="cn">。</text><text x="350" y="10" class="cn">最</text><text x="370" y="10" class="cn">常</text><text x="390" y="10" class="cn">见</text><text x="410" y="10" class="cn">的</text><text x="430" y="10" class="cn">是</text><text x="450" y="10" class="cn">容</text><text x="470" y="10" class="cn">器</text><text x="490" y="10" class="cn">的</text><text x="510" y="10" class="cn">主</text><text x="530" y="10" class="cn">进</text><text x="550" y="10" class="cn">程</text><text x="570" y="10" class="cn">（</text><text x="590" y="10" class="en">E</text>
    </g>
    <g transform="translate(0, 20)">
      <rect x="0" y="0" width="20" height="20" class="cell-box"/><rect x="20" y="0" width="20" height="20" class="cell-box"/><rect x="40" y="0" width="20" height="20" class="cell-box"/><rect x="60" y="0" width="20" height="20" class="cell-box"/><rect x="80" y="0" width="20" height="20" class="cell-box"/><rect x="100" y="0" width="20" height="20" class="cell-box"/><rect x="120" y="0" width="20" height="20" class="cell-box"/><rect x="140" y="0" width="20" height="20" class="cell-box"/><rect x="160" y="0" width="20" height="20" class="cell-box"/><rect x="180" y="0" width="20" height="20" class="cell-box"/><rect x="200" y="0" width="20" height="20" class="cell-box"/><rect x="220" y="0" width="20" height="20" class="cell-box"/><rect x="240" y="0" width="20" height="20" class="cell-box"/><rect x="260" y="0" width="20" height="20" class="cell-box"/><rect x="280" y="0" width="20" height="20" class="cell-box"/><rect x="300" y="0" width="20" height="20" class="cell-box"/><rect x="320" y="0" width="20" height="20" class="cell-box"/><rect x="340" y="0" width="20" height="20" class="cell-box"/><rect x="360" y="0" width="20" height="20" class="cell-box"/><rect x="380" y="0" width="20" height="20" class="cell-box"/><rect x="400" y="0" width="20" height="20" class="cell-box"/><rect x="420" y="0" width="20" height="20" class="cell-box"/><rect x="440" y="0" width="20" height="20" class="cell-box"/><rect x="460" y="0" width="20" height="20" class="cell-box"/><rect x="480" y="0" width="20" height="20" class="cell-box"/><rect x="500" y="0" width="20" height="20" class="cell-box"/><rect x="520" y="0" width="20" height="20" class="cell-box"/><rect x="540" y="0" width="20" height="20" class="cell-box"/><rect x="560" y="0" width="20" height="20" class="cell-box"/><rect x="580" y="0" width="20" height="20" class="cell-box"/>
      <text x="10" y="10" class="en">N</text><text x="30" y="10" class="en">T</text><text x="50" y="10" class="en">R</text><text x="70" y="10" class="en">Y</text><text x="90" y="10" class="en">P</text><text x="110" y="10" class="en">O</text><text x="130" y="10" class="en">I</text><text x="150" y="10" class="en">N</text><text x="170" y="10" class="en">T</text><text x="190" y="10" class="en">/</text><text x="210" y="10" class="en">C</text><text x="230" y="10" class="en">M</text><text x="250" y="10" class="en">D</text><text x="270" y="10" class="cn">）</text><text x="290" y="10" class="cn">执</text><text x="310" y="10" class="cn">行</text><text x="330" y="10" class="cn">完</text><text x="350" y="10" class="cn">成</text><text x="370" y="10" class="cn">或</text><text x="390" y="10" class="cn">者</text><text x="410" y="10" class="cn">崩</text><text x="430" y="10" class="cn">溃</text><text x="450" y="10" class="cn">了</text><text x="470" y="10" class="cn">，</text><text x="490" y="10" class="en">D</text><text x="510" y="10" class="en">o</text><text x="530" y="10" class="en">c</text><text x="550" y="10" class="en">k</text><text x="570" y="10" class="en">e</text><text x="590" y="10" class="en">r</text>
    </g>
    <g transform="translate(0, 40)">
      <rect x="0" y="0" width="20" height="20" class="cell-box"/><rect x="20" y="0" width="20" height="20" class="cell-box"/><rect x="40" y="0" width="20" height="20" class="cell-box"/><rect x="60" y="0" width="20" height="20" class="cell-box"/><rect x="80" y="0" width="20" height="20" class="cell-box"/><rect x="100" y="0" width="20" height="20" class="cell-box"/><rect x="120" y="0" width="20" height="20" class="cell-box"/><rect x="140" y="0" width="20" height="20" class="cell-box"/><rect x="160" y="0" width="20" height="20" class="cell-box"/><rect x="180" y="0" width="20" height="20" class="cell-box"/><rect x="200" y="0" width="20" height="20" class="cell-box"/><rect x="220" y="0" width="20" height="20" class="cell-box"/><rect x="240" y="0" width="20" height="20" class="cell-box"/><rect x="260" y="0" width="20" height="20" class="cell-box"/><rect x="280" y="0" width="20" height="20" class="cell-box"/><rect x="300" y="0" width="20" height="20" class="cell-box"/><rect x="320" y="0" width="20" height="20" class="cell-box"/><rect x="340" y="0" width="20" height="20" class="cell-box"/><rect x="360" y="0" width="20" height="20" class="cell-box"/><rect x="380" y="0" width="20" height="20" class="cell-box"/><rect x="400" y="0" width="20" height="20" class="cell-box"/><rect x="420" y="0" width="20" height="20" class="cell-box"/><rect x="440" y="0" width="20" height="20" class="cell-box"/><rect x="460" y="0" width="20" height="20" class="cell-box"/><rect x="480" y="0" width="20" height="20" class="cell-box"/><rect x="500" y="0" width="20" height="20" class="cell-box"/><rect x="520" y="0" width="20" height="20" class="cell-box"/><rect x="540" y="0" width="20" height="20" class="cell-box"/><rect x="560" y="0" width="20" height="20" class="cell-box"/><rect x="580" y="0" width="20" height="20" class="cell-box"/>
      <text x="10" y="10" class="cn">会</text><text x="30" y="10" class="cn">跟</text><text x="50" y="10" class="cn">随</text><text x="70" y="10" class="cn">主</text><text x="90" y="10" class="cn">进</text><text x="110" y="10" class="cn">程</text><text x="130" y="10" class="cn">的</text><text x="150" y="10" class="cn">生</text><text x="170" y="10" class="cn">命</text><text x="190" y="10" class="cn">周</text><text x="210" y="10" class="cn">期</text><text x="230" y="10" class="cn">。</text><text x="250" y="10" class="cn">可</text><text x="270" y="10" class="cn">以</text><text x="290" y="10" class="cn">用</text><text x="310" y="10" class="en">d</text><text x="330" y="10" class="en">o</text><text x="350" y="10" class="en">c</text><text x="370" y="10" class="en">k</text><text x="390" y="10" class="en">e</text><text x="410" y="10" class="en">r</text><text x="450" y="10" class="en">l</text><text x="470" y="10" class="en">o</text><text x="490" y="10" class="en">g</text><text x="510" y="10" class="en">s</text><text x="530" y="10" class="cn">看</text><text x="550" y="10" class="cn">退</text><text x="570" y="10" class="cn">出</text><text x="590" y="10" class="cn">前</text>
    </g>
    <g transform="translate(0, 60)">
      <rect x="0" y="0" width="20" height="20" class="cell-box"/><rect x="20" y="0" width="20" height="20" class="cell-box"/><rect x="40" y="0" width="20" height="20" class="cell-box"/><rect x="60" y="0" width="20" height="20" class="cell-box"/><rect x="80" y="0" width="20" height="20" class="cell-box"/><rect x="100" y="0" width="20" height="20" class="cell-box"/><rect x="120" y="0" width="20" height="20" class="cell-box"/><rect x="140" y="0" width="20" height="20" class="cell-box"/><rect x="160" y="0" width="20" height="20" class="cell-box"/><rect x="180" y="0" width="20" height="20" class="cell-box"/><rect x="200" y="0" width="20" height="20" class="cell-box"/><rect x="220" y="0" width="20" height="20" class="cell-box"/><rect x="240" y="0" width="20" height="20" class="cell-box"/><rect x="260" y="0" width="20" height="20" class="cell-box"/><rect x="280" y="0" width="20" height="20" class="cell-box"/><rect x="300" y="0" width="20" height="20" class="cell-box"/><rect x="320" y="0" width="20" height="20" class="cell-box"/><rect x="340" y="0" width="20" height="20" class="cell-box"/><rect x="360" y="0" width="20" height="20" class="cell-box"/><rect x="380" y="0" width="20" height="20" class="cell-box"/><rect x="400" y="0" width="20" height="20" class="cell-box"/><rect x="420" y="0" width="20" height="20" class="cell-box"/><rect x="440" y="0" width="20" height="20" class="cell-box"/><rect x="460" y="0" width="20" height="20" class="cell-box"/><rect x="480" y="0" width="20" height="20" class="cell-box"/><rect x="500" y="0" width="20" height="20" class="cell-box"/><rect x="520" y="0" width="20" height="20" class="cell-box"/><rect x="540" y="0" width="20" height="20" class="cell-box"/><rect x="560" y="0" width="20" height="20" class="cell-box"/><rect x="580" y="0" width="20" height="20" class="cell-box"/>
      <text x="10" y="10" class="cn">的</text><text x="30" y="10" class="cn">输</text><text x="50" y="10" class="cn">出</text><text x="70" y="10" class="cn">，</text><text x="90" y="10" class="cn">排</text><text x="110" y="10" class="cn">查</text><text x="130" y="10" class="cn">是</text><text x="150" y="10" class="cn">不</text><text x="170" y="10" class="cn">是</text><text x="190" y="10" class="cn">报</text><text x="210" y="10" class="cn">错</text><text x="230" y="10" class="cn">退</text><text x="250" y="10" class="cn">出</text><text x="270" y="10" class="cn">。</text><text x="290" y="10" class="cn">也</text><text x="310" y="10" class="cn">有</text><text x="330" y="10" class="cn">可</text><text x="350" y="10" class="cn">能</text><text x="370" y="10" class="cn">是</text><text x="390" y="10" class="en">C</text><text x="410" y="10" class="en">M</text><text x="430" y="10" class="en">D</text><text x="450" y="10" class="cn">写</text><text x="470" y="10" class="cn">法</text><text x="490" y="10" class="cn">的</text><text x="510" y="10" class="cn">问</text><text x="530" y="10" class="cn">题</text><text x="550" y="10" class="cn">，</text><text x="570" y="10" class="cn">比</text><text x="590" y="10" class="cn">如</text>
    </g>
    <g transform="translate(0, 80)">
      <rect x="0" y="0" width="20" height="20" class="cell-box"/><rect x="20" y="0" width="20" height="20" class="cell-box"/><rect x="40" y="0" width="20" height="20" class="cell-box"/><rect x="60" y="0" width="20" height="20" class="cell-box"/><rect x="80" y="0" width="20" height="20" class="cell-box"/><rect x="100" y="0" width="20" height="20" class="cell-box"/><rect x="120" y="0" width="20" height="20" class="cell-box"/><rect x="140" y="0" width="20" height="20" class="cell-box"/><rect x="160" y="0" width="20" height="20" class="cell-box"/><rect x="180" y="0" width="20" height="20" class="cell-box"/><rect x="200" y="0" width="20" height="20" class="cell-box"/><rect x="220" y="0" width="20" height="20" class="cell-box"/><rect x="240" y="0" width="20" height="20" class="cell-box"/><rect x="260" y="0" width="20" height="20" class="cell-box"/><rect x="280" y="0" width="20" height="20" class="cell-box"/><rect x="300" y="0" width="20" height="20" class="cell-box"/><rect x="320" y="0" width="20" height="20" class="cell-box"/><rect x="340" y="0" width="20" height="20" class="cell-box"/><rect x="360" y="0" width="20" height="20" class="cell-box"/><rect x="380" y="0" width="20" height="20" class="cell-box"/><rect x="400" y="0" width="20" height="20" class="cell-box"/><rect x="420" y="0" width="20" height="20" class="cell-box"/><rect x="440" y="0" width="20" height="20" class="cell-box"/><rect x="460" y="0" width="20" height="20" class="cell-box"/><rect x="480" y="0" width="20" height="20" class="cell-box"/><rect x="500" y="0" width="20" height="20" class="cell-box"/><rect x="520" y="0" width="20" height="20" class="cell-box"/><rect x="540" y="0" width="20" height="20" class="cell-box"/><rect x="560" y="0" width="20" height="20" class="cell-box"/><rect x="580" y="0" width="20" height="20" class="cell-box"/>
      <text x="10" y="10" class="cn">用</text><text x="30" y="10" class="en">s</text><text x="50" y="10" class="en">h</text><text x="70" y="10" class="en">e</text><text x="90" y="10" class="en">l</text><text x="110" y="10" class="en">l</text><text x="150" y="10" class="en">f</text><text x="170" y="10" class="en">o</text><text x="190" y="10" class="en">r</text><text x="210" y="10" class="en">m</text><text x="230" y="10" class="cn">而</text><text x="250" y="10" class="cn">不</text><text x="270" y="10" class="cn">是</text><text x="290" y="10" class="en">e</text><text x="310" y="10" class="en">x</text><text x="330" y="10" class="en">e</text><text x="350" y="10" class="en">c</text><text x="390" y="10" class="en">f</text><text x="410" y="10" class="en">o</text><text x="430" y="10" class="en">r</text><text x="450" y="10" class="en">m</text><text x="470" y="10" class="cn">导</text><text x="490" y="10" class="cn">致</text><text x="510" y="10" class="cn">信</text><text x="530" y="10" class="cn">号</text><text x="550" y="10" class="cn">处</text><text x="570" y="10" class="cn">理</text><text x="590" y="10" class="cn">异</text>
    </g>
    <g transform="translate(0, 100)">
      <rect x="0" y="0" width="20" height="20" class="cell-box"/><rect x="20" y="0" width="20" height="20" class="cell-box"/><rect x="40" y="0" width="20" height="20" class="cell-box"/><rect x="60" y="0" width="20" height="20" class="cell-box"/><rect x="80" y="0" width="20" height="20" class="cell-box"/><rect x="100" y="0" width="20" height="20" class="cell-box"/><rect x="120" y="0" width="20" height="20" class="cell-box"/><rect x="140" y="0" width="20" height="20" class="cell-box"/><rect x="160" y="0" width="20" height="20" class="cell-box"/><rect x="180" y="0" width="20" height="20" class="cell-box"/><rect x="200" y="0" width="20" height="20" class="cell-box"/><rect x="220" y="0" width="20" height="20" class="cell-box"/><rect x="240" y="0" width="20" height="20" class="cell-box"/><rect x="260" y="0" width="20" height="20" class="cell-box"/><rect x="280" y="0" width="20" height="20" class="cell-box"/><rect x="300" y="0" width="20" height="20" class="cell-box"/><rect x="320" y="0" width="20" height="20" class="cell-box"/><rect x="340" y="0" width="20" height="20" class="cell-box"/><rect x="360" y="0" width="20" height="20" class="cell-box"/><rect x="380" y="0" width="20" height="20" class="cell-box"/><rect x="400" y="0" width="20" height="20" class="cell-box"/><rect x="420" y="0" width="20" height="20" class="cell-box"/><rect x="440" y="0" width="20" height="20" class="cell-box"/><rect x="460" y="0" width="20" height="20" class="cell-box"/><rect x="480" y="0" width="20" height="20" class="cell-box"/><rect x="500" y="0" width="20" height="20" class="cell-box"/><rect x="520" y="0" width="20" height="20" class="cell-box"/><rect x="540" y="0" width="20" height="20" class="cell-box"/><rect x="560" y="0" width="20" height="20" class="cell-box"/><rect x="580" y="0" width="20" height="20" class="cell-box"/>
      <text x="10" y="10" class="cn">常</text><text x="30" y="10" class="cn">。</text><text x="50" y="10" class="cn">如</text><text x="70" y="10" class="cn">果</text><text x="90" y="10" class="cn">是</text><text x="110" y="10" class="cn">基</text><text x="130" y="10" class="cn">于</text><text x="150" y="10" class="en">s</text><text x="170" y="10" class="en">c</text><text x="190" y="10" class="en">r</text><text x="210" y="10" class="en">a</text><text x="230" y="10" class="en">t</text><text x="250" y="10" class="en">c</text><text x="270" y="10" class="en">h</text><text x="290" y="10" class="cn">或</text><text x="310" y="10" class="en">d</text><text x="330" y="10" class="en">i</text><text x="350" y="10" class="en">s</text><text x="370" y="10" class="en">t</text><text x="390" y="10" class="en">r</text><text x="410" y="10" class="en">o</text><text x="430" y="10" class="en">l</text><text x="450" y="10" class="en">e</text><text x="470" y="10" class="en">s</text><text x="490" y="10" class="en">s</text><text x="510" y="10" class="cn">镜</text><text x="530" y="10" class="cn">像</text><text x="550" y="10" class="cn">，</text><text x="570" y="10" class="cn">还</text><text x="590" y="10" class="cn">要</text>
    </g>
    <g transform="translate(0, 120)">
      <rect x="0" y="0" width="20" height="20" class="cell-box"/><rect x="20" y="0" width="20" height="20" class="cell-box"/><rect x="40" y="0" width="20" height="20" class="cell-box"/><rect x="60" y="0" width="20" height="20" class="cell-box"/><rect x="80" y="0" width="20" height="20" class="cell-box"/><rect x="100" y="0" width="20" height="20" class="cell-box"/><rect x="120" y="0" width="20" height="20" class="cell-box"/><rect x="140" y="0" width="20" height="20" class="cell-box"/><rect x="160" y="0" width="20" height="20" class="cell-box"/><rect x="180" y="0" width="20" height="20" class="cell-box"/><rect x="200" y="0" width="20" height="20" class="cell-box"/><rect x="220" y="0" width="20" height="20" class="cell-box"/><rect x="240" y="0" width="20" height="20" class="cell-box"/><rect x="260" y="0" width="20" height="20" class="cell-box"/><rect x="280" y="0" width="20" height="20" class="cell-box"/><rect x="300" y="0" width="20" height="20" class="cell-box"/><rect x="320" y="0" width="20" height="20" class="cell-box"/><rect x="340" y="0" width="20" height="20" class="cell-box"/><rect x="360" y="0" width="20" height="20" class="cell-box"/><rect x="380" y="0" width="20" height="20" class="cell-box"/><rect x="400" y="0" width="20" height="20" class="cell-box"/><rect x="420" y="0" width="20" height="20" class="cell-box"/><rect x="440" y="0" width="20" height="20" class="cell-box"/><rect x="460" y="0" width="20" height="20" class="cell-box"/><rect x="480" y="0" width="20" height="20" class="cell-box"/><rect x="500" y="0" width="20" height="20" class="cell-box"/><rect x="520" y="0" width="20" height="20" class="cell-box"/><rect x="540" y="0" width="20" height="20" class="cell-box"/><rect x="560" y="0" width="20" height="20" class="cell-box"/><rect x="580" y="0" width="20" height="20" class="cell-box"/>
      <text x="10" y="10" class="cn">确</text><text x="30" y="10" class="cn">认</text><text x="50" y="10" class="cn">二</text><text x="70" y="10" class="cn">进</text><text x="90" y="10" class="cn">制</text><text x="110" y="10" class="cn">文</text><text x="130" y="10" class="cn">件</text><text x="150" y="10" class="cn">的</text><text x="170" y="10" class="cn">架</text><text x="190" y="10" class="cn">构</text><text x="210" y="10" class="cn">是</text><text x="230" y="10" class="cn">否</text><text x="250" y="10" class="cn">匹</text><text x="270" y="10" class="cn">配</text><text x="290" y="10" class="cn">（</text><text x="310" y="10" class="en">x</text><text x="330" y="10" class="en">8</text><text x="350" y="10" class="en">6</text><text x="370" y="10" class="en">_</text><text x="390" y="10" class="en">6</text><text x="410" y="10" class="en">4</text><text x="450" y="10" class="en">v</text><text x="470" y="10" class="en">s</text><text x="510" y="10" class="en">a</text><text x="530" y="10" class="en">r</text><text x="550" y="10" class="en">m</text><text x="570" y="10" class="en">6</text><text x="590" y="10" class="en">4</text>
    </g>
  </g>
</g>

<g transform="translate(40, 290)">
  <text x="0" y="0" class="mode-label">简</text>
  <text x="600" y="0" class="mode-count" text-anchor="end">65 字 · 压缩至 25%</text>

  <g transform="translate(0, 14)">
    <g>
      <rect x="0" y="0" width="20" height="20" class="cell-box"/><rect x="20" y="0" width="20" height="20" class="cell-box"/><rect x="40" y="0" width="20" height="20" class="cell-box"/><rect x="60" y="0" width="20" height="20" class="cell-box"/><rect x="80" y="0" width="20" height="20" class="cell-box"/><rect x="100" y="0" width="20" height="20" class="cell-box"/><rect x="120" y="0" width="20" height="20" class="cell-box"/><rect x="140" y="0" width="20" height="20" class="cell-box"/><rect x="160" y="0" width="20" height="20" class="cell-box"/><rect x="180" y="0" width="20" height="20" class="cell-box"/><rect x="200" y="0" width="20" height="20" class="cell-box"/><rect x="220" y="0" width="20" height="20" class="cell-box"/><rect x="240" y="0" width="20" height="20" class="cell-box"/><rect x="260" y="0" width="20" height="20" class="cell-box"/><rect x="280" y="0" width="20" height="20" class="cell-box"/><rect x="300" y="0" width="20" height="20" class="cell-box"/><rect x="320" y="0" width="20" height="20" class="cell-box"/><rect x="340" y="0" width="20" height="20" class="cell-box"/><rect x="360" y="0" width="20" height="20" class="cell-box"/><rect x="380" y="0" width="20" height="20" class="cell-box"/><rect x="400" y="0" width="20" height="20" class="cell-box"/><rect x="420" y="0" width="20" height="20" class="cell-box"/><rect x="440" y="0" width="20" height="20" class="cell-box"/><rect x="460" y="0" width="20" height="20" class="cell-box"/><rect x="480" y="0" width="20" height="20" class="cell-box"/><rect x="500" y="0" width="20" height="20" class="cell-box"/><rect x="520" y="0" width="20" height="20" class="cell-box"/><rect x="540" y="0" width="20" height="20" class="cell-box"/><rect x="560" y="0" width="20" height="20" class="cell-box"/><rect x="580" y="0" width="20" height="20" class="cell-box"/>
      <text x="10" y="10" class="cn">容</text><text x="30" y="10" class="cn">器</text><text x="50" y="10" class="cn">主</text><text x="70" y="10" class="cn">进</text><text x="90" y="10" class="cn">程</text><text x="110" y="10" class="cn">结</text><text x="130" y="10" class="cn">束</text><text x="150" y="10" class="cn">则</text><text x="170" y="10" class="cn">容</text><text x="190" y="10" class="cn">器</text><text x="210" y="10" class="cn">停</text><text x="230" y="10" class="cn">。</text><text x="250" y="10" class="cn">三</text><text x="270" y="10" class="cn">大</text><text x="290" y="10" class="cn">常</text><text x="310" y="10" class="cn">因</text><text x="330" y="10" class="cn">：</text><text x="350" y="10" class="en">1</text><text x="370" y="10" class="cn">)</text><text x="390" y="10" class="cn">主</text><text x="410" y="10" class="cn">进</text><text x="430" y="10" class="cn">程</text><text x="470" y="10" class="en">c</text><text x="490" y="10" class="en">r</text><text x="510" y="10" class="en">a</text><text x="530" y="10" class="en">s</text><text x="550" y="10" class="en">h</text><text x="570" y="10" class="cn">，</text><text x="590" y="10" class="cn">查</text>
    </g>
    <g transform="translate(0, 20)">
      <rect x="0" y="0" width="20" height="20" class="cell-box"/><rect x="20" y="0" width="20" height="20" class="cell-box"/><rect x="40" y="0" width="20" height="20" class="cell-box"/><rect x="60" y="0" width="20" height="20" class="cell-box"/><rect x="80" y="0" width="20" height="20" class="cell-box"/><rect x="100" y="0" width="20" height="20" class="cell-box"/><rect x="120" y="0" width="20" height="20" class="cell-box"/><rect x="140" y="0" width="20" height="20" class="cell-box"/><rect x="160" y="0" width="20" height="20" class="cell-box"/><rect x="180" y="0" width="20" height="20" class="cell-box"/><rect x="200" y="0" width="20" height="20" class="cell-box"/><rect x="220" y="0" width="20" height="20" class="cell-box"/><rect x="240" y="0" width="20" height="20" class="cell-box"/><rect x="260" y="0" width="20" height="20" class="cell-box"/><rect x="280" y="0" width="20" height="20" class="cell-box"/><rect x="300" y="0" width="20" height="20" class="cell-box"/><rect x="320" y="0" width="20" height="20" class="cell-box"/><rect x="340" y="0" width="20" height="20" class="cell-box"/><rect x="360" y="0" width="20" height="20" class="cell-box"/><rect x="380" y="0" width="20" height="20" class="cell-box"/><rect x="400" y="0" width="20" height="20" class="cell-box"/><rect x="420" y="0" width="20" height="20" class="cell-box"/><rect x="440" y="0" width="20" height="20" class="cell-box"/><rect x="460" y="0" width="20" height="20" class="cell-box"/><rect x="480" y="0" width="20" height="20" class="cell-box"/><rect x="500" y="0" width="20" height="20" class="cell-box"/><rect x="520" y="0" width="20" height="20" class="cell-box"/><rect x="540" y="0" width="20" height="20" class="cell-box"/><rect x="560" y="0" width="20" height="20" class="cell-box"/><rect x="580" y="0" width="20" height="20" class="cell-box"/>
      <text x="10" y="10" class="en">d</text><text x="30" y="10" class="en">o</text><text x="50" y="10" class="en">c</text><text x="70" y="10" class="en">k</text><text x="90" y="10" class="en">e</text><text x="110" y="10" class="en">r</text><text x="150" y="10" class="en">l</text><text x="170" y="10" class="en">o</text><text x="190" y="10" class="en">g</text><text x="210" y="10" class="en">s</text><text x="230" y="10" class="cn">；</text><text x="250" y="10" class="en">2</text><text x="270" y="10" class="cn">)</text><text x="290" y="10" class="en">C</text><text x="310" y="10" class="en">M</text><text x="330" y="10" class="en">D</text><text x="350" y="10" class="cn">用</text><text x="370" y="10" class="en">s</text><text x="390" y="10" class="en">h</text><text x="410" y="10" class="en">e</text><text x="430" y="10" class="en">l</text><text x="450" y="10" class="en">l</text><text x="470" y="10" class="cn">，</text><text x="490" y="10" class="cn">改</text><text x="510" y="10" class="en">e</text><text x="530" y="10" class="en">x</text><text x="550" y="10" class="en">e</text><text x="570" y="10" class="en">c</text><text x="590" y="10" class="cn">；</text>
    </g>
    <g transform="translate(0, 40)">
      <rect x="0" y="0" width="20" height="20" class="cell-box"/><rect x="20" y="0" width="20" height="20" class="cell-box"/><rect x="40" y="0" width="20" height="20" class="cell-box"/><rect x="60" y="0" width="20" height="20" class="cell-box"/><rect x="80" y="0" width="20" height="20" class="cell-box"/><rect x="100" y="0" width="20" height="20" class="cell-box"/><rect x="120" y="0" width="20" height="20" class="cell-box"/><rect x="140" y="0" width="20" height="20" class="cell-box"/><rect x="160" y="0" width="20" height="20" class="cell-box"/><rect x="180" y="0" width="20" height="20" class="cell-box"/><rect x="200" y="0" width="20" height="20" class="cell-box"/><rect x="220" y="0" width="20" height="20" class="cell-box"/><rect x="240" y="0" width="20" height="20" class="cell-box"/><rect x="260" y="0" width="20" height="20" class="cell-box"/><rect x="280" y="0" width="20" height="20" class="cell-box"/><rect x="300" y="0" width="20" height="20" class="cell-box"/><rect x="320" y="0" width="20" height="20" class="cell-box"/><rect x="340" y="0" width="20" height="20" class="cell-box"/><rect x="360" y="0" width="20" height="20" class="cell-box"/><rect x="380" y="0" width="20" height="20" class="cell-box"/><rect x="400" y="0" width="20" height="20" class="cell-box"/><rect x="420" y="0" width="20" height="20" class="cell-box"/><rect x="440" y="0" width="20" height="20" class="cell-box"/>
      <text x="10" y="10" class="en">3</text><text x="30" y="10" class="cn">)</text><text x="50" y="10" class="cn">二</text><text x="70" y="10" class="cn">进</text><text x="90" y="10" class="cn">制</text><text x="110" y="10" class="cn">架</text><text x="130" y="10" class="cn">构</text><text x="150" y="10" class="cn">不</text><text x="170" y="10" class="cn">匹</text><text x="190" y="10" class="cn">配</text><text x="210" y="10" class="cn">（</text><text x="230" y="10" class="en">x</text><text x="250" y="10" class="en">8</text><text x="270" y="10" class="en">6</text><text x="310" y="10" class="en">v</text><text x="330" y="10" class="en">s</text><text x="370" y="10" class="en">a</text><text x="390" y="10" class="en">r</text><text x="410" y="10" class="en">m</text><text x="430" y="10" class="cn">）</text><text x="450" y="10" class="cn">。</text>
    </g>
  </g>
</g>

<g transform="translate(40, 430)">
  <text x="0" y="0" class="mode-label">精</text>
  <text x="600" y="0" class="mode-count" text-anchor="end">32 字 · 压缩至 12%</text>

  <g transform="translate(0, 14)">
    <g>
      <rect x="0" y="0" width="20" height="20" class="cell-box"/><rect x="20" y="0" width="20" height="20" class="cell-box"/><rect x="40" y="0" width="20" height="20" class="cell-box"/><rect x="60" y="0" width="20" height="20" class="cell-box"/><rect x="80" y="0" width="20" height="20" class="cell-box"/><rect x="100" y="0" width="20" height="20" class="cell-box"/><rect x="120" y="0" width="20" height="20" class="cell-box"/><rect x="140" y="0" width="20" height="20" class="cell-box"/><rect x="160" y="0" width="20" height="20" class="cell-box"/><rect x="180" y="0" width="20" height="20" class="cell-box"/><rect x="200" y="0" width="20" height="20" class="cell-box"/><rect x="220" y="0" width="20" height="20" class="cell-box"/><rect x="240" y="0" width="20" height="20" class="cell-box"/><rect x="260" y="0" width="20" height="20" class="cell-box"/><rect x="280" y="0" width="20" height="20" class="cell-box"/><rect x="300" y="0" width="20" height="20" class="cell-box"/><rect x="320" y="0" width="20" height="20" class="cell-box"/><rect x="340" y="0" width="20" height="20" class="cell-box"/><rect x="360" y="0" width="20" height="20" class="cell-box"/><rect x="380" y="0" width="20" height="20" class="cell-box"/><rect x="400" y="0" width="20" height="20" class="cell-box"/><rect x="420" y="0" width="20" height="20" class="cell-box"/><rect x="440" y="0" width="20" height="20" class="cell-box"/><rect x="460" y="0" width="20" height="20" class="cell-box"/><rect x="480" y="0" width="20" height="20" class="cell-box"/><rect x="500" y="0" width="20" height="20" class="cell-box"/><rect x="520" y="0" width="20" height="20" class="cell-box"/><rect x="540" y="0" width="20" height="20" class="cell-box"/><rect x="560" y="0" width="20" height="20" class="cell-box"/><rect x="580" y="0" width="20" height="20" class="cell-box"/>
      <text x="10" y="10" class="cn">主</text><text x="30" y="10" class="cn">进</text><text x="50" y="10" class="cn">程</text><text x="70" y="10" class="cn">退</text><text x="90" y="10" class="cn">→</text><text x="110" y="10" class="cn">容</text><text x="130" y="10" class="cn">器</text><text x="150" y="10" class="cn">停</text><text x="170" y="10" class="cn">。</text><text x="190" y="10" class="cn">查</text><text x="210" y="10" class="cn">：</text><text x="230" y="10" class="en">l</text><text x="250" y="10" class="en">o</text><text x="270" y="10" class="en">g</text><text x="290" y="10" class="en">s</text><text x="330" y="10" class="cn">/</text><text x="370" y="10" class="en">e</text><text x="390" y="10" class="en">x</text><text x="410" y="10" class="en">e</text><text x="430" y="10" class="en">c</text><text x="470" y="10" class="cn">/</text><text x="510" y="10" class="cn">架</text><text x="530" y="10" class="cn">构</text><text x="550" y="10" class="cn">对</text><text x="570" y="10" class="cn">齐</text><text x="590" y="10" class="cn">。</text>
    </g>
  </g>
</g>

<g transform="translate(40, 510)">
  <text x="0" y="0" class="mode-label">文言文</text>
  <text x="600" y="0" class="mode-count" text-anchor="end">58 字 · 压缩至 22%</text>

  <g transform="translate(0, 14)">
    <g>
      <rect x="0" y="0" width="20" height="20" class="cell-box"/><rect x="20" y="0" width="20" height="20" class="cell-box"/><rect x="40" y="0" width="20" height="20" class="cell-box"/><rect x="60" y="0" width="20" height="20" class="cell-box"/><rect x="80" y="0" width="20" height="20" class="cell-box"/><rect x="100" y="0" width="20" height="20" class="cell-box"/><rect x="120" y="0" width="20" height="20" class="cell-box"/><rect x="140" y="0" width="20" height="20" class="cell-box"/><rect x="160" y="0" width="20" height="20" class="cell-box"/><rect x="180" y="0" width="20" height="20" class="cell-box"/><rect x="200" y="0" width="20" height="20" class="cell-box"/><rect x="220" y="0" width="20" height="20" class="cell-box"/><rect x="240" y="0" width="20" height="20" class="cell-box"/><rect x="260" y="0" width="20" height="20" class="cell-box"/><rect x="280" y="0" width="20" height="20" class="cell-box"/><rect x="300" y="0" width="20" height="20" class="cell-box"/><rect x="320" y="0" width="20" height="20" class="cell-box"/><rect x="340" y="0" width="20" height="20" class="cell-box"/><rect x="360" y="0" width="20" height="20" class="cell-box"/><rect x="380" y="0" width="20" height="20" class="cell-box"/><rect x="400" y="0" width="20" height="20" class="cell-box"/><rect x="420" y="0" width="20" height="20" class="cell-box"/><rect x="440" y="0" width="20" height="20" class="cell-box"/><rect x="460" y="0" width="20" height="20" class="cell-box"/><rect x="480" y="0" width="20" height="20" class="cell-box"/><rect x="500" y="0" width="20" height="20" class="cell-box"/><rect x="520" y="0" width="20" height="20" class="cell-box"/><rect x="540" y="0" width="20" height="20" class="cell-box"/><rect x="560" y="0" width="20" height="20" class="cell-box"/><rect x="580" y="0" width="20" height="20" class="cell-box"/>
      <text x="10" y="10" class="cn">容</text><text x="30" y="10" class="cn">器</text><text x="50" y="10" class="cn">之</text><text x="70" y="10" class="cn">生</text><text x="90" y="10" class="cn">，</text><text x="110" y="10" class="cn">系</text><text x="130" y="10" class="cn">于</text><text x="150" y="10" class="cn">主</text><text x="170" y="10" class="cn">进</text><text x="190" y="10" class="cn">程</text><text x="210" y="10" class="cn">之</text><text x="230" y="10" class="cn">存</text><text x="250" y="10" class="cn">，</text><text x="270" y="10" class="cn">主</text><text x="290" y="10" class="cn">进</text><text x="310" y="10" class="cn">程</text><text x="330" y="10" class="cn">退</text><text x="350" y="10" class="cn">则</text><text x="370" y="10" class="cn">容</text><text x="390" y="10" class="cn">器</text><text x="410" y="10" class="cn">亡</text><text x="430" y="10" class="cn">。</text><text x="450" y="10" class="cn">先</text><text x="470" y="10" class="cn">以</text><text x="490" y="10" class="en">d</text><text x="510" y="10" class="en">o</text><text x="530" y="10" class="en">c</text><text x="550" y="10" class="en">k</text><text x="570" y="10" class="en">e</text><text x="590" y="10" class="en">r</text>
    </g>
    <g transform="translate(0, 20)">
      <rect x="0" y="0" width="20" height="20" class="cell-box"/><rect x="20" y="0" width="20" height="20" class="cell-box"/><rect x="40" y="0" width="20" height="20" class="cell-box"/><rect x="60" y="0" width="20" height="20" class="cell-box"/><rect x="80" y="0" width="20" height="20" class="cell-box"/><rect x="100" y="0" width="20" height="20" class="cell-box"/><rect x="120" y="0" width="20" height="20" class="cell-box"/><rect x="140" y="0" width="20" height="20" class="cell-box"/><rect x="160" y="0" width="20" height="20" class="cell-box"/><rect x="180" y="0" width="20" height="20" class="cell-box"/><rect x="200" y="0" width="20" height="20" class="cell-box"/><rect x="220" y="0" width="20" height="20" class="cell-box"/><rect x="240" y="0" width="20" height="20" class="cell-box"/><rect x="260" y="0" width="20" height="20" class="cell-box"/><rect x="280" y="0" width="20" height="20" class="cell-box"/><rect x="300" y="0" width="20" height="20" class="cell-box"/><rect x="320" y="0" width="20" height="20" class="cell-box"/><rect x="340" y="0" width="20" height="20" class="cell-box"/><rect x="360" y="0" width="20" height="20" class="cell-box"/><rect x="380" y="0" width="20" height="20" class="cell-box"/><rect x="400" y="0" width="20" height="20" class="cell-box"/><rect x="420" y="0" width="20" height="20" class="cell-box"/><rect x="440" y="0" width="20" height="20" class="cell-box"/><rect x="460" y="0" width="20" height="20" class="cell-box"/><rect x="480" y="0" width="20" height="20" class="cell-box"/><rect x="500" y="0" width="20" height="20" class="cell-box"/><rect x="520" y="0" width="20" height="20" class="cell-box"/><rect x="540" y="0" width="20" height="20" class="cell-box"/><rect x="560" y="0" width="20" height="20" class="cell-box"/><rect x="580" y="0" width="20" height="20" class="cell-box"/>
      <text x="30" y="10" class="en">l</text><text x="50" y="10" class="en">o</text><text x="70" y="10" class="en">g</text><text x="90" y="10" class="en">s</text><text x="110" y="10" class="cn">察</text><text x="130" y="10" class="cn">其</text><text x="150" y="10" class="cn">末</text><text x="170" y="10" class="cn">言</text><text x="190" y="10" class="cn">，</text><text x="210" y="10" class="cn">次</text><text x="230" y="10" class="cn">验</text><text x="250" y="10" class="en">C</text><text x="270" y="10" class="en">M</text><text x="290" y="10" class="en">D</text><text x="310" y="10" class="cn">可</text><text x="330" y="10" class="cn">为</text><text x="350" y="10" class="en">e</text><text x="370" y="10" class="en">x</text><text x="390" y="10" class="en">e</text><text x="410" y="10" class="en">c</text><text x="450" y="10" class="en">f</text><text x="470" y="10" class="en">o</text><text x="490" y="10" class="en">r</text><text x="510" y="10" class="en">m</text><text x="530" y="10" class="cn">，</text><text x="550" y="10" class="cn">终</text><text x="570" y="10" class="cn">审</text><text x="590" y="10" class="cn">其</text>
    </g>
    <g transform="translate(0, 40)">
      <rect x="0" y="0" width="20" height="20" class="cell-box"/><rect x="20" y="0" width="20" height="20" class="cell-box"/><rect x="40" y="0" width="20" height="20" class="cell-box"/><rect x="60" y="0" width="20" height="20" class="cell-box"/><rect x="80" y="0" width="20" height="20" class="cell-box"/><rect x="100" y="0" width="20" height="20" class="cell-box"/><rect x="120" y="0" width="20" height="20" class="cell-box"/><rect x="140" y="0" width="20" height="20" class="cell-box"/><rect x="160" y="0" width="20" height="20" class="cell-box"/><rect x="180" y="0" width="20" height="20" class="cell-box"/><rect x="200" y="0" width="20" height="20" class="cell-box"/><rect x="220" y="0" width="20" height="20" class="cell-box"/><rect x="240" y="0" width="20" height="20" class="cell-box"/><rect x="260" y="0" width="20" height="20" class="cell-box"/><rect x="280" y="0" width="20" height="20" class="cell-box"/><rect x="300" y="0" width="20" height="20" class="cell-box"/><rect x="320" y="0" width="20" height="20" class="cell-box"/>
      <text x="10" y="10" class="cn">架</text><text x="30" y="10" class="cn">构</text><text x="50" y="10" class="cn">符</text><text x="70" y="10" class="cn">否</text><text x="90" y="10" class="cn">（</text><text x="110" y="10" class="en">x</text><text x="130" y="10" class="en">8</text><text x="150" y="10" class="en">6</text><text x="190" y="10" class="en">v</text><text x="210" y="10" class="en">s</text><text x="250" y="10" class="en">a</text><text x="270" y="10" class="en">r</text><text x="290" y="10" class="en">m</text><text x="310" y="10" class="cn">）</text><text x="330" y="10" class="cn">。</text>
    </g>
  </g>
</g>

<line x1="40" y1="595" x2="640" y2="595" stroke="#2F7A3E" stroke-width="0.3" opacity="0.3"/>
<text x="40" y="610" class="footer-note">* 实际压缩率按 token 计算，此处字数仅作示意展示</text>
<text x="640" y="610" class="footer-label" text-anchor="end">github.com/jaceyang97/moyan</text>

</svg>
